<?xml version="1.0" standalone="no"?>
<!DOCTYPE svg PUBLIC "-//W3C//DTD SVG 20010904//EN"
 "http://www.w3.org/TR/2001/REC-SVG-20010904/DTD/svg10.dtd">
<svg version="1.0" xmlns="http://www.w3.org/2000/svg"
 width="512.000000pt" height="512.000000pt" viewBox="0 0 512.000000 512.000000"
 preserveAspectRatio="xMidYMid meet">

<g transform="translate(0.000000,512.000000) scale(0.100000,-0.100000)"
fill="#000000" stroke="none">
<path d="M3477 4710 c-458 -52 -840 -382 -957 -826 -58 -224 -42 -425 51 -645
68 -160 262 -472 434 -699 177 -233 571 -690 595 -690 11 0 244 258 380 420
376 450 617 838 706 1135 45 151 37 351 -23 535 -107 333 -380 610 -708 718
-143 48 -332 68 -478 52z"/>
<path d="M725 240 l-160 -160 1355 0 1355 0 -160 160 -160 160 -1035 0 -1035
0 -160 -160z"/>
</g>
</svg>
